<svg id="Capa_1" enable-background="new 0 0 512 512" height="512" viewBox="0 0 512 512" width="512" xmlns="http://www.w3.org/2000/svg"><g><g><g fill="#ffcbbe"><path d="m154.549 504.374c.539.006 1.077.02 1.616.02h43.496c.134 0 .264-.017.398-.02z"/><path d="m143.677 502.91c-.631.298-1.282.564-1.956.776.651.063 1.304.112 1.956.167z"/></g><g><g><g><g><g><path d="m403.452 7.606h-240.445c-15.452 0-27.978 12.526-27.978 27.978v413.712c0 15.452 12.526 27.978 27.978 27.978h313.516c15.452 0 27.978-12.526 27.978-27.978v-340.641c0-7.42-2.948-14.537-8.195-19.784l-73.07-73.07c-5.247-5.247-12.363-8.195-19.784-8.195z" fill="#f4fbff"/><g><path d="m496.306 88.871-55.126-55.127v415.552c0 15.452-12.526 27.978-27.978 27.978h63.321c15.452 0 27.978-12.526 27.978-27.978v-340.641c0-7.421-2.948-14.537-8.195-19.784z" fill="#e4f6ff"/></g><path d="m496.306 88.871-73.07-73.071c-2.392-2.392-5.173-4.306-8.195-5.681v69.601c0 9.58 7.766 17.346 17.345 17.346h69.601c-1.374-3.022-3.288-5.803-5.681-8.195z" fill="#e28086"/></g><g><g><g><path d="m275.456 174.987h-74.384c-8.052 0-14.58-6.527-14.58-14.58v-92.235c0-8.052 6.527-14.58 14.58-14.58h74.384c8.052 0 14.58 6.527 14.58 14.58v92.235c0 8.052-6.528 14.58-14.58 14.58z" fill="#bed8fb"/><path d="m238.264 128.416c-23.58 0-43.652 15.002-51.205 35.979 1.736 6.111 7.346 10.591 14.013 10.591h74.384c6.667 0 12.277-4.48 14.013-10.591-7.553-20.977-27.625-35.979-51.205-35.979z" fill="#4a80aa"/><circle cx="238.264" cy="110.664" fill="#365e7d" r="23.223"/></g></g></g></g></g><g><g><g><g><g><g><g><g><g><g><g><g><g><g><g><path d="m222.818 341.317-74.096-.016c-7.564-.002-13.695-6.134-13.695-13.698v-18.894c-17.526 0-34.083 8.037-44.926 21.805l-11.046 14.027c-6.722 8.536-16.986 13.518-27.851 13.518h-16.402v124.197h30.934c4.493 0 8.945.854 13.12 2.517l29.258 11.656c15.471 5.274 31.706 7.966 48.051 7.966h43.496c8.531 0 15.446-6.916 15.446-15.446v-9.877c0-8.531-6.916-15.446-15.446-15.446h9.9c8.531 0 15.446-6.915 15.446-15.446v-9.877c0-8.531-6.916-15.446-15.446-15.446h7.868c8.531 0 15.446-6.915 15.446-15.446v-9.877c0-8.531-6.915-15.446-15.446-15.446h5.389c8.531 0 15.446-6.915 15.446-15.446v-9.877c0-8.532-6.915-15.448-15.446-15.448z" fill="#ffddce"/></g></g></g></g></g><path d="m30.9 328.984c-12.924 0-23.401 10.477-23.401 23.401v128.608c0 12.924 10.477 23.401 23.401 23.401 12.924 0 23.401-10.477 23.401-23.401v-128.608c0-12.924-10.477-23.401-23.401-23.401z" fill="#4a80aa"/></g></g></g></g></g></g></g></g></g></g></g><g fill="#ffcbbe"><path d="m135.027 327.603v-18.894c-17.526 0-34.083 8.037-44.926 21.805-3.443 4.372-.329 10.789 5.236 10.79l53.388.011-.003-.014c-7.564-.002-13.695-6.134-13.695-13.698z"/><path d="m222.818 341.317-65.427-.015-.049.012c0 10.444 8.466 18.911 18.91 18.911l46.565.002c6.959 0 12.839 4.603 14.771 10.929.436-1.429.675-2.945.675-4.517v-9.877c.001-8.529-6.914-15.445-15.445-15.445z"/><path d="m152.682 382.079c0 10.444 8.466 18.911 18.91 18.911l46.565.002c6.513 0 12.08 4.033 14.351 9.736.235-1.07.367-2.178.367-3.319v-9.877c0-8.531-6.915-15.446-15.446-15.446z"/><path d="m209.561 422.856-64.869-.006c0 10.444 8.466 18.911 18.91 18.911l46.565.002c6.586 0 12.201 4.126 14.422 9.932.264-1.131.418-2.305.418-3.516v-9.877c0-8.531-6.915-15.446-15.446-15.446z"/><path d="m199.661 463.625-65.046-.017c0 10.444 8.466 18.911 18.91 18.911l46.565.002c6.697 0 12.384 4.268 14.526 10.228.309-1.218.491-2.487.491-3.801v-9.877c.001-8.531-6.915-15.446-15.446-15.446z"/></g></g></g><g><path d="m453.562 240.938h-267.594c-4.142 0-7.499 3.358-7.499 7.499s3.358 7.499 7.499 7.499h267.594c4.142 0 7.499-3.358 7.499-7.499s-3.357-7.499-7.499-7.499z"/><path d="m453.562 283.627h-267.594c-4.142 0-7.499 3.358-7.499 7.499 0 4.142 3.358 7.499 7.499 7.499h267.594c4.142 0 7.499-3.358 7.499-7.499s-3.357-7.499-7.499-7.499z"/><path d="m453.562 340.799h-164.606c-4.142 0-7.499 3.358-7.499 7.499 0 4.142 3.357 7.499 7.499 7.499h164.606c4.142 0 7.499-3.358 7.499-7.499s-3.357-7.499-7.499-7.499z"/><path d="m453.562 383.488h-164.606c-4.142 0-7.499 3.358-7.499 7.499 0 4.142 3.357 7.499 7.499 7.499h164.606c4.142 0 7.499-3.358 7.499-7.499s-3.357-7.499-7.499-7.499z"/><path d="m186.493 101.988c-4.142 0-7.499 3.358-7.499 7.499v50.92c0 12.174 9.904 22.079 22.079 22.079h74.384c12.175 0 22.079-9.904 22.079-22.079v-92.235c0-12.174-9.904-22.079-22.079-22.079h-74.384c-12.174 0-22.079 9.904-22.079 22.079v6.256c0 4.142 3.358 7.499 7.499 7.499s7.499-3.358 7.499-7.499v-6.256c0-3.904 3.176-7.08 7.08-7.08h74.384c3.904 0 7.08 3.176 7.08 7.08v71.334c-5.178-5.298-11.295-9.64-18.085-12.798 2.873-4.673 4.534-10.167 4.534-16.044 0-16.94-13.782-30.722-30.722-30.722s-30.722 13.782-30.722 30.722c0 5.876 1.661 11.371 4.534 16.044-6.789 3.158-12.906 7.501-18.084 12.798v-30.019c.001-4.142-3.356-7.499-7.498-7.499zm51.771-7.048c8.67 0 15.724 7.054 15.724 15.724s-7.054 15.724-15.724 15.724-15.723-7.054-15.723-15.724 7.053-15.724 15.723-15.724zm-13.948 43.083c4.189 2.144 8.927 3.363 13.948 3.363 5.02 0 9.759-1.218 13.948-3.363 13.11 4.062 23.732 13.633 29.156 26.269-1.267 1.922-3.443 3.194-5.912 3.194h-74.384c-2.469 0-4.644-1.272-5.912-3.194 5.425-12.636 16.047-22.206 29.156-26.269z"/><path d="m504.501 380.613c4.142 0 7.499-3.358 7.499-7.499v-264.46c0-9.477-3.69-18.386-10.391-25.086l-73.07-73.07c-6.701-6.701-15.61-10.391-25.087-10.391h-240.445c-19.563 0-35.478 15.915-35.478 35.477v266.056c-17.043 1.956-32.539 10.544-43.32 24.235l-11.045 14.027c-3.051 3.874-7.085 6.839-11.61 8.645-1.897-15.232-14.915-27.061-30.653-27.061-17.038 0-30.9 13.862-30.9 30.9v128.608c0 17.038 13.862 30.9 30.9 30.9 13.995 0 25.84-9.355 29.627-22.139 3.464.189 8.636-.77 15.552 1.985 12.752 4.087 38.277 20.154 80.085 20.154h43.496c12.652 0 22.946-10.293 22.946-22.946v-4.174h253.916c19.563 0 35.477-15.915 35.477-35.478v-40.779c0-4.142-3.357-7.499-7.499-7.499s-7.499 3.358-7.499 7.499v40.779c0 11.292-9.187 20.479-20.479 20.479h-255.884c-.181-.406-.373-.806-.576-1.199 7.384-3.818 12.444-11.528 12.444-20.398v-9.877c0-4.136-1.1-8.021-3.023-11.375 6.532-4.049 10.891-11.284 10.891-19.517v-9.877c0-4.637-1.383-8.958-3.757-12.571 5.551-4.192 9.147-10.845 9.147-18.322v-9.877c0-12.652-10.293-22.946-22.944-22.946l-74.095-.016c-3.418-.001-6.198-2.782-6.198-6.199v-18.875c0-.007.001-.013.001-.019v-273.123c0-11.292 9.187-20.479 20.479-20.479h240.446c1.39 0 2.758.14 4.089.409v64.206c0 13.699 11.145 24.845 24.845 24.845h64.205c.269 1.332.409 2.7.409 4.089v264.46c-.001 4.142 3.356 7.499 7.499 7.499zm-473.601 116.282c-8.768 0-15.902-7.133-15.902-15.901v-128.609c0-8.768 7.134-15.901 15.902-15.901s15.901 7.133 15.901 15.901v128.608c.001 8.769-7.132 15.902-15.901 15.902zm117.821-148.094 74.097.016c4.382 0 7.947 3.565 7.947 7.947v9.877c0 4.382-3.565 7.947-7.947 7.947h-5.389l-64.747-.007s0 0-.001 0c-4.141 0-7.499 3.357-7.499 7.498 0 4.142 3.357 7.5 7.498 7.5l64.747.007h.001c4.382 0 7.947 3.565 7.947 7.947v9.877c0 4.382-3.565 7.947-7.947 7.947h-7.867l-64.869-.006c-4.141 0-7.499 3.357-7.499 7.499s3.357 7.499 7.499 7.5l64.869.006c4.382 0 7.947 3.565 7.947 7.947v9.877c0 4.382-3.565 7.947-7.947 7.947h-9.898l-65.046-.017c-.001 0-.001 0-.002 0-4.141 0-7.498 3.357-7.499 7.497-.001 4.142 3.356 7.5 7.497 7.501l65.046.017h.002c4.382 0 7.947 3.565 7.947 7.947v9.877c0 4.382-3.565 7.947-7.947 7.947h-43.496c-38.148 0-60.435-14.53-74.535-19.089-9.802-3.905-17.404-2.881-19.83-3.05v-110.553c9.092-2.324 17.292-7.588 23.147-15.023l11.045-14.027c7.913-10.049 19.132-16.52 31.536-18.386v10.835c0 11.685 9.507 21.195 21.193 21.198zm273.819-269.081v-54.009l63.855 63.855h-54.009c-5.428 0-9.846-4.417-9.846-9.846z"/></g></g></svg>